<?xml version="1.0" encoding="UTF-8" standalone="no"?>
<!DOCTYPE svg PUBLIC "-//W3C//DTD SVG 1.1//EN" "http://www.w3.org/Graphics/SVG/1.1/DTD/svg11.dtd">
<svg version="1.1" xmlns="http://www.w3.org/2000/svg" xmlns:xlink="http://www.w3.org/1999/xlink" preserveAspectRatio="xMidYMid meet" viewBox="0 0 640 640" width="640" height="640"><defs><path d="M488.74 528.45C433.76 528.45 389.13 485.77 389.13 433.2C389.13 380.64 433.76 337.96 488.74 337.96C543.72 337.96 588.35 380.64 588.35 433.2C588.35 485.77 543.72 528.45 488.74 528.45Z" id="b40EZ69L1D"></path><path d="M488.74 528.45C433.76 528.45 389.13 485.77 389.13 433.2C389.13 380.64 433.76 337.96 488.74 337.96C543.72 337.96 588.35 380.64 588.35 433.2C588.35 485.77 543.72 528.45 488.74 528.45Z" id="c2k9pie7K"></path><path d="M501.94 334.37C501.94 340.37 501.94 348.37 501.94 354.37C501.94 359.89 497.46 364.37 491.94 364.37C485.94 364.37 477.94 364.37 471.94 364.37C466.42 364.37 461.94 359.89 461.94 354.37C461.94 348.37 461.94 340.37 461.94 334.37C461.94 328.85 466.42 324.37 471.94 324.37C477.94 324.37 485.94 324.37 491.94 324.37C497.46 324.37 501.94 328.85 501.94 334.37Z" id="baRxNOpLt"></path><path d="M484.85 340.49L484.85 328.83L484.85 314.27L481.94 302.62L477.09 290.97L468.35 283.2L456.7 274.47L448.93 265.73L445.05 255.05L445.05 244.37L447.96 232.72L453.79 223.01L462.52 217.18L473.2 210.39L481.94 201.65L489.71 194.85L500.39 188.06L511.07 180.29L524.66 167.67L536.31 152.14L542.14 142.43L547.96 133.69L552.82 123.98L546.99 114.27L541.17 105.53" id="e1plfRajiB"></path></defs><g><g><g><use xlink:href="#b40EZ69L1D" opacity="1" fill="#000000" fill-opacity="1"></use><g><use xlink:href="#b40EZ69L1D" opacity="1" fill-opacity="0" stroke="#000000" stroke-width="1" stroke-opacity="0"></use></g></g><g><use xlink:href="#c2k9pie7K" opacity="1" fill="#000000" fill-opacity="0"></use><g><use xlink:href="#c2k9pie7K" opacity="1" fill-opacity="0" stroke="#a7a6a6" stroke-width="1" stroke-opacity="1"></use></g></g><g><use xlink:href="#baRxNOpLt" opacity="1" fill="#000000" fill-opacity="1"></use><g><use xlink:href="#baRxNOpLt" opacity="1" fill-opacity="0" stroke="#000000" stroke-width="1" stroke-opacity="0"></use></g></g><g><use xlink:href="#e1plfRajiB" opacity="1" fill="#000000" fill-opacity="0"></use><g><use xlink:href="#e1plfRajiB" opacity="1" fill-opacity="0" stroke="#999999" stroke-width="7" stroke-opacity="1"></use></g></g></g></g></svg>